<svg width="24" height="24" viewBox="0 0 24 24" fill="none" xmlns="http://www.w3.org/2000/svg">
    <!-- 메인 폴더 아이콘 -->
    <path d="M20 6h-8l-2-2H4c-1.1 0-2 .9-2 2v12c0 1.1.9 2 2 2h16c1.1 0 2-.9 2-2V8c0-1.1-.9-2-2-2z" fill="#4A90E2"/>
    
    <!-- 폴더 내부 음영 -->
    <path d="M4 6h5.17l2 2H20v10H4V6z" fill="#5C9EE8"/>
    
    <!-- 작은 필름 릴 아이콘 -->
    <circle cx="14" cy="13" r="3" fill="#FFFFFF" opacity="0.9"/>
    <circle cx="14" cy="13" r="1.5" fill="#4A90E2"/>
    <rect x="13.5" y="10" width="1" height="1.5" fill="#FFFFFF" opacity="0.9"/>
    <rect x="13.5" y="14.5" width="1" height="1.5" fill="#FFFFFF" opacity="0.9"/>
    <rect x="11" y="12.5" width="1.5" height="1" fill="#FFFFFF" opacity="0.9"/>
    <rect x="15.5" y="12.5" width="1.5" height="1" fill="#FFFFFF" opacity="0.9"/>
</svg>